<svg version="1.2" xmlns="http://www.w3.org/2000/svg" viewBox="0 0 16 20" width="16" height="20">
	<title>uil_cart-svg</title>
	<style>
		.s0 { fill: #000000 } 
	</style>
	<path id="Layer" fill-rule="evenodd" class="s0" d="m15.7 5.3q0.3 0.3 0.3 0.7v11c0 0.8-0.3 1.6-0.9 2.1-0.5 0.6-1.3 0.9-2.1 0.9h-10c-0.8 0-1.6-0.3-2.1-0.9-0.6-0.5-0.9-1.3-0.9-2.1v-11q0-0.4 0.3-0.7 0.3-0.3 0.7-0.3h3v-1c0-1.1 0.4-2.1 1.2-2.8 0.7-0.8 1.7-1.2 2.8-1.2 1.1 0 2.1 0.4 2.8 1.2 0.8 0.7 1.2 1.7 1.2 2.8v1h3q0.4 0 0.7 0.3zm-9.7-0.3h4v-1c0-0.5-0.2-1-0.6-1.4-0.4-0.4-0.9-0.6-1.4-0.6-0.5 0-1 0.2-1.4 0.6-0.4 0.4-0.6 0.9-0.6 1.4zm8 2h-2v1q0 0.4-0.3 0.7-0.3 0.3-0.7 0.3-0.4 0-0.7-0.3-0.3-0.3-0.3-0.7v-1h-4v1q0 0.4-0.3 0.7-0.3 0.3-0.7 0.3-0.4 0-0.7-0.3-0.3-0.3-0.3-0.7v-1h-2v10q0 0.4 0.3 0.7 0.3 0.3 0.7 0.3h10q0.4 0 0.7-0.3 0.3-0.3 0.3-0.7z"/>
</svg>